<?xml version="1.0" encoding="UTF-8"?>
<svg version="1.1" xmlns="http://www.w3.org/2000/svg" width="500" height="500">
<path d="M0 0 C165 0 330 0 500 0 C500 165 500 330 500 500 C335 500 170 500 0 500 C0 335 0 170 0 0 Z " fill="#000000" transform="translate(0,0)"/>
<path d="M0 0 C0.33 0 0.66 0 1 0 C2.03196861 12.72761281 -1.99790142 24.95636374 -10 35 C-16.8773592 41.23134503 -25.98810767 44.36294762 -35 46 C-33.35 46.66 -31.7 47.32 -30 48 C-30.804375 48.9075 -31.60875 49.815 -32.4375 50.75 C-40.06733562 59.73150813 -46.36501621 69.09040581 -52.34179688 79.21582031 C-60.36136962 92.75581956 -69.08534622 105.77136399 -79 118 C-79.66386719 118.83015625 -80.32773438 119.6603125 -81.01171875 120.515625 C-88.3817562 129.30585223 -97.10039871 135.40620521 -108 139 C-106.02 140.32 -104.04 141.64 -102 143 C-106.52092968 144.45606519 -109.51648796 143.27032841 -114 142 C-113.53956578 134.96598185 -111.9274019 129.47669369 -109.0625 123.0625 C-108.66135986 122.15081055 -108.26021973 121.23912109 -107.84692383 120.29980469 C-99.57697325 101.86093714 -89.09846208 83.64452927 -75 69 C-76.69572716 70.64273568 -78.35302883 72.3088418 -80 74 C-80.56976563 74.57363281 -81.13953125 75.14726562 -81.7265625 75.73828125 C-98.9640675 94.00436165 -111.05912779 119.64196635 -116.94140625 143.87890625 C-117.99272392 148.13450596 -119.35291296 152.24394949 -120.8125 156.375 C-121.04775391 157.0659375 -121.28300781 157.756875 -121.52539062 158.46875 C-123.5487454 164.22548641 -126.18291961 169.59283103 -129 175 C-128.26998779 174.71801758 -127.53997559 174.43603516 -126.7878418 174.14550781 C-123.42148511 172.84590414 -120.05449707 171.54794364 -116.6875 170.25 C-115.53958984 169.8065625 -114.39167969 169.363125 -113.20898438 168.90625 C-109.80892893 167.59631363 -106.40565769 166.29529705 -103 165 C-102.02659668 164.62834717 -101.05319336 164.25669434 -100.05029297 163.8737793 C-94.02582856 161.6211211 -88.00025341 159.82168386 -81.75 158.3125 C-80.904375 158.10044922 -80.05875 157.88839844 -79.1875 157.66992188 C-70.22802217 155.464833 -61.7132308 154.79310283 -52.5 154.75 C-50.84677734 154.7190625 -50.84677734 154.7190625 -49.16015625 154.6875 C-43.06977092 154.65825445 -38.2474419 154.72771881 -33 158 C-31.9296875 159.96484375 -31.9296875 159.96484375 -32 162 C-34.7440609 168.35094507 -41.09394172 172.83570462 -46.41650391 176.96704102 C-50.13281585 179.93078611 -52.17986538 182.61366851 -54 187 C-31.36588936 188.27476218 -13.03132821 179.41291232 7.44921875 170.67578125 C8.31111816 170.3094458 9.17301758 169.94311035 10.06103516 169.56567383 C11.68408299 168.87422314 13.30499899 168.17773855 14.92333984 167.4753418 C18.60123587 165.90101991 22.00629794 164.56939911 26 164 C23.32842225 167.17491849 19.91356475 168.72934521 16.25 170.5 C15.20912231 171.00950195 15.20912231 171.00950195 14.1472168 171.52929688 C12.60592484 172.28158816 11.0631143 173.03077372 9.51904297 173.77734375 C6.86137854 175.06728206 4.21399045 176.37700883 1.56640625 177.6875 C-33.81900536 195.06182806 -33.81900536 195.06182806 -49.5 195.25 C-51.43359375 195.28867187 -51.43359375 195.28867187 -53.40625 195.328125 C-57.18807545 194.98282789 -59.05864974 194.36190978 -62 192 C-63.10638257 187.91489512 -62.60923091 186.11411841 -60.5859375 182.4140625 C-56.28194371 176.09091112 -51.32942766 171.44457861 -45.22265625 166.875 C-42.75040958 165.11993977 -42.75040958 165.11993977 -42 162 C-55.39054795 159.41768593 -68.82350371 161.02822731 -82 164 C-83.02561035 164.23106445 -84.0512207 164.46212891 -85.10791016 164.70019531 C-99.02345603 167.89616786 -112.60854741 171.56555691 -125.98095703 176.59838867 C-126.86509277 176.92685791 -127.74922852 177.25532715 -128.66015625 177.59375 C-129.42980713 177.88958984 -130.19945801 178.18542969 -130.99243164 178.49023438 C-133 179 -133 179 -136 178 C-135.22076172 176.72769531 -135.22076172 176.72769531 -134.42578125 175.4296875 C-124.68670632 159.68430065 -124.68670632 159.68430065 -123 142 C-125.86615486 139.50459629 -125.86615486 139.50459629 -129 138 C-129 137.67 -129 137.34 -129 137 C-127.35 137 -125.7 137 -124 137 C-124.48726562 136.02546875 -124.48726562 136.02546875 -124.984375 135.03125 C-126.28078614 131.16196135 -126.29961213 127.53215183 -126.25 123.5 C-126.24250732 122.69973389 -126.23501465 121.89946777 -126.22729492 121.07495117 C-125.96679185 106.54062616 -122.7682445 92.92478178 -116 80 C-115.34 80 -114.68 80 -114 80 C-112.7223345 78.04592644 -112.7223345 78.04592644 -111.4375 75.5625 C-108.11760604 69.78769686 -103.87589842 65.48582655 -99 61 C-98.67 61.66 -98.34 62.32 -98 63 C-98.77734375 65.27734375 -98.77734375 65.27734375 -99.9375 67.9375 C-101.24374985 70.94408863 -102 72.69522894 -102 76 C-101.74347656 75.24976563 -101.48695313 74.49953125 -101.22265625 73.7265625 C-96.02262208 59.82478765 -86.91798997 51.59051166 -73.56982422 45.41235352 C-69.89793068 43.87264765 -66.20779863 42.38785554 -62.5 40.9375 C-53.67248155 37.4593342 -45.21156455 33.77915594 -37 29 C-37 31.31 -37 33.62 -37 36 C-36.38253906 35.35933594 -35.76507813 34.71867187 -35.12890625 34.05859375 C-28.86158637 27.65772368 -22.45632255 21.9708817 -15 17 C-14.34 17 -13.68 17 -13 17 C-11.2331097 15.38035056 -9.61865035 13.75978607 -8 12 C-7.47535156 11.43410156 -6.95070313 10.86820313 -6.41015625 10.28515625 C-3.49826858 7.03153115 -1.29057558 4.25889942 0 0 Z " fill="#D5D5D5" transform="translate(304,109)"/>
<path d="M0 0 C1.10214844 -0.020625 2.20429688 -0.04125 3.33984375 -0.0625 C9.43022908 -0.09174555 14.2525581 -0.02228119 19.5 3.25 C20.5703125 5.21484375 20.5703125 5.21484375 20.5 7.25 C17.7559391 13.60094507 11.40605828 18.08570462 6.08349609 22.21704102 C2.36718415 25.18078611 0.32013462 27.86366851 -1.5 32.25 C21.13411064 33.52476218 39.46867179 24.66291232 59.94921875 15.92578125 C60.81111816 15.5594458 61.67301758 15.19311035 62.56103516 14.81567383 C64.18408299 14.12422314 65.80499899 13.42773855 67.42333984 12.7253418 C71.10123587 11.15101991 74.50629794 9.81939911 78.5 9.25 C75.82842225 12.42491849 72.41356475 13.97934521 68.75 15.75 C68.05608154 16.08966797 67.36216309 16.42933594 66.6472168 16.77929688 C65.10592484 17.53158816 63.5631143 18.28077372 62.01904297 19.02734375 C59.36137854 20.31728206 56.71399045 21.62700883 54.06640625 22.9375 C18.68099464 40.31182806 18.68099464 40.31182806 3 40.5 C1.06640625 40.53867187 1.06640625 40.53867187 -0.90625 40.578125 C-4.68807545 40.23282789 -6.55864974 39.61190978 -9.5 37.25 C-10.60638257 33.16489512 -10.10923091 31.36411841 -8.0859375 27.6640625 C-3.78194371 21.34091112 1.17057234 16.69457861 7.27734375 12.125 C9.74959042 10.36993977 9.74959042 10.36993977 10.5 7.25 C-2.89054795 4.66768593 -16.32350371 6.27822731 -29.5 9.25 C-30.52561035 9.48106445 -31.5512207 9.71212891 -32.60791016 9.95019531 C-46.52345603 13.14616786 -60.10854741 16.81555691 -73.48095703 21.84838867 C-74.36509277 22.17685791 -75.24922852 22.50532715 -76.16015625 22.84375 C-76.92980713 23.13958984 -77.69945801 23.43542969 -78.49243164 23.74023438 C-80.5 24.25 -80.5 24.25 -83.5 23.25 C-82.57615834 21.57572385 -81.63549431 19.91071997 -80.6875 18.25 C-80.16542969 17.321875 -79.64335937 16.39375 -79.10546875 15.4375 C-78.57566406 14.715625 -78.04585937 13.99375 -77.5 13.25 C-76.51 13.25 -75.52 13.25 -74.5 13.25 C-75.375 18 -75.375 18 -76.5 20.25 C-75.76998779 19.96801758 -75.03997559 19.68603516 -74.2878418 19.39550781 C-70.92148511 18.09590414 -67.55449707 16.79794364 -64.1875 15.5 C-63.03958984 15.0565625 -61.89167969 14.613125 -60.70898438 14.15625 C-57.30892893 12.84631363 -53.90565769 11.54529705 -50.5 10.25 C-49.52659668 9.87834717 -48.55319336 9.50669434 -47.55029297 9.1237793 C-41.52582856 6.8711211 -35.50025341 5.07168386 -29.25 3.5625 C-27.9815625 3.24442383 -27.9815625 3.24442383 -26.6875 2.91992188 C-17.72802217 0.714833 -9.2132308 0.04310283 0 0 Z " fill="#CECECE" transform="translate(251.5,263.75)"/>
<path d="M0 0 C0 4.10447075 -1.59409775 5.08952128 -4.3125 8.125 C-19.97837091 26.28649367 -34.81670635 51.15522621 -39 75 C-41 72 -41 72 -40.88305664 70.03710938 C-39.55336486 64.58979933 -37.78181437 59.59059289 -35.4375 54.5 C-35.08526367 53.72664307 -34.73302734 52.95328613 -34.37011719 52.15649414 C-25.46154178 32.84607772 -14.92964526 15.29297734 0 0 Z " fill="#151515" transform="translate(229,176)"/>
<path d="M0 0 C0.495 0.99 0.495 0.99 1 2 C-0.06476563 2.30292969 -1.12953125 2.60585938 -2.2265625 2.91796875 C-3.69303385 3.34001642 -5.15915464 3.76328329 -6.625 4.1875 C-7.3895752 4.40873535 -8.15415039 4.6299707 -8.94189453 4.85791016 C-15.16139877 6.68778296 -21.19545059 8.83675232 -27.2421875 11.1796875 C-30 12 -30 12 -33 11 C-32.07615834 9.32572385 -31.13549431 7.66071997 -30.1875 6 C-29.66542969 5.071875 -29.14335937 4.14375 -28.60546875 3.1875 C-27.81076172 2.1046875 -27.81076172 2.1046875 -27 1 C-26.01 1 -25.02 1 -24 1 C-24.875 5.75 -24.875 5.75 -26 8 C-24.97845825 7.5831897 -24.97845825 7.5831897 -23.9362793 7.15795898 C-20.85722618 5.90800473 -17.77253394 4.67261472 -14.6875 3.4375 C-13.0797168 2.78104492 -13.0797168 2.78104492 -11.43945312 2.11132812 C-10.41142578 1.70205078 -9.38339844 1.29277344 -8.32421875 0.87109375 C-7.37635498 0.48880615 -6.42849121 0.10651855 -5.4519043 -0.28735352 C-3 -1 -3 -1 0 0 Z " fill="#B8B8B8" transform="translate(201,276)"/>
<path d="M0 0 C0 4.05329405 -2.06989067 5.73993525 -4.625 8.625 C-8.83718085 13.51107002 -12.59004827 18.51080941 -16 24 C-16.66 23.34 -17.32 22.68 -18 22 C-12.37774676 14.26441753 -6.54333278 6.99193006 0 0 Z " fill="#252525" transform="translate(229,176)"/>
<path d="M0 0 C0.99 0 1.98 0 3 0 C2.43623218 3.94637474 1.4640248 6.83196811 -1 10 C-2.65 10.33 -4.3 10.66 -6 11 C-4.02 7.37 -2.04 3.74 0 0 Z " fill="#BEBEBE" transform="translate(174,277)"/>
<path d="M0 0 C-5.61 2.97 -11.22 5.94 -17 9 C-17.33 8.34 -17.66 7.68 -18 7 C-15.36114619 3.78419249 -12.26914567 2.70559724 -8.4375 1.25 C-7.28121094 0.80140625 -6.12492187 0.3528125 -4.93359375 -0.109375 C-2 -1 -2 -1 0 0 Z " fill="#ADADAD" transform="translate(330,274)"/>
<path d="M0 0 C0.33 0 0.66 0 1 0 C1.48667297 6.00230002 -0.30117022 11.31700989 -2 17 C-4 14 -4 14 -3.828125 11.9140625 C-3.63734375 11.15867188 -3.4465625 10.40328125 -3.25 9.625 C-3.05148438 8.83480469 -2.85296875 8.04460937 -2.6484375 7.23046875 C-1.9247606 4.7411946 -1.06719259 2.3630693 0 0 Z " fill="#2F2F2F" transform="translate(192,234)"/>
<path d="M0 0 C1 3 1 3 -0.21484375 5.48046875 C-0.78332031 6.37378906 -1.35179687 7.26710937 -1.9375 8.1875 C-2.50339844 9.08855469 -3.06929687 9.98960937 -3.65234375 10.91796875 C-4.09707031 11.60503906 -4.54179687 12.29210937 -5 13 C-5.99 12.67 -6.98 12.34 -8 12 C-6.85573734 10.186508 -5.70954608 8.37423275 -4.5625 6.5625 C-3.60537109 5.04849609 -3.60537109 5.04849609 -2.62890625 3.50390625 C-1 1 -1 1 0 0 Z " fill="#1B1B1B" transform="translate(211,199)"/>
<path d="M0 0 C8.71428571 1.85714286 8.71428571 1.85714286 11 5 C6.97007218 4.44687265 2.97977076 3.8441938 -1 3 C-0.67 2.01 -0.34 1.02 0 0 Z " fill="#C9C9C9" transform="translate(191,248)"/>
<path d="M0 0 C0.33 0.66 0.66 1.32 1 2 C0.67 2.99 0.34 3.98 0 5 C-1.65 5.33 -3.3 5.66 -5 6 C-3.63016497 2.83884224 -3.0109362 2.0072908 0 0 Z " fill="#C7C7C7" transform="translate(173,282)"/>
</svg>
